# xmcd
#
# Track frame offsets: 
#        150
#        17585
#        28708
#        41665
#        57090
#        72953
#        91840
#        107993
#        121128
#        135345
#
# Disc length: 1964 seconds
#
# Revision: 5
# Processed by: cddbd v1.5.2PL0 Copyright (c) Steve Scherf et al.
# Submitted via: ExactAudioCopyFreeDBPlugin 1.0
#
DISCID=7b07aa0a
DTITLE=Lou Ann Barton - Old Enough
DYEAR=1992
DGENRE=Blues
TTITLE0=I'm Old Enough
TTITLE1=Brand New Lover
TTITLE2=It's Raining
TTITLE3=It Ain't Right
TTITLE4=Finger Poppin' Time
TTITLE5=Stop These Teardrops
TTITLE6=The Sudden Stop
TTITLE7=The Doodle Song
TTITLE8=Maybe
TTITLE9=Every Night of the Week
EXTD=YEAR: 1992
EXTT0=
EXTT1=
EXTT2=
EXTT3=
EXTT4=
EXTT5=
EXTT6=
EXTT7=
EXTT8=
EXTT9=
PLAYORDER=
